<?xml version="1.0" standalone="no"?>
<!DOCTYPE svg PUBLIC "-//W3C//DTD SVG 20010904//EN"
 "http://www.w3.org/TR/2001/REC-SVG-20010904/DTD/svg10.dtd">
<svg version="1.0" xmlns="http://www.w3.org/2000/svg"
 width="650.000000pt" height="650.000000pt" viewBox="0 0 650.000000 650.000000"
 preserveAspectRatio="xMidYMid meet">
<metadata>
Created by potrace 1.11, written by Peter Selinger 2001-2013
</metadata>
<g transform="translate(0.000000,650.000000) scale(0.100000,-0.100000)"
fill="#000000" stroke="none">
<path d="M2722 6238 c2 -6 10 -14 16 -16 7 -2 10 2 6 12 -7 18 -28 22 -22 4z"/>
<path d="M5136 6131 c-3 -5 1 -11 9 -15 9 -3 15 0 15 9 0 16 -16 20 -24 6z"/>
<path d="M1315 6119 c-10 -15 3 -25 16 -12 7 7 7 13 1 17 -6 3 -14 1 -17 -5z"/>
<path d="M1211 6100 c-16 -9 -6 -30 15 -30 15 0 20 25 6 34 -4 2 -14 1 -21 -4z"/>
<path d="M2854 6058 c-42 -13 -62 -52 -54 -101 8 -43 10 -46 36 -52 11 -2 34
-7 52 -11 21 -4 32 -3 32 5 0 6 9 11 19 11 19 0 39 35 27 47 -3 3 -1 14 5 24
6 13 6 19 -1 19 -5 0 -10 8 -10 18 0 18 -34 45 -60 48 -8 1 -29 -3 -46 -8z"/>
<path d="M2126 6045 c-8 -8 -19 -15 -25 -15 -13 0 -58 -61 -59 -80 -2 -32 -9
-48 -34 -73 -23 -23 -26 -33 -22 -75 4 -46 1 -51 -39 -95 -61 -67 -67 -74 -67
-92 0 -9 -5 -25 -10 -35 -8 -16 -8 -18 5 -14 11 5 15 -1 15 -20 0 -18 -6 -26
-17 -27 -12 0 -13 -2 -5 -6 10 -4 9 -8 -4 -18 -16 -11 -15 -14 9 -41 15 -16
27 -34 27 -41 0 -6 3 -18 6 -27 4 -12 0 -16 -16 -16 -16 0 -20 -4 -16 -16 3
-9 6 -18 6 -20 0 -3 5 -2 11 2 7 4 10 3 7 -2 -32 -69 -48 -109 -48 -124 0 -10
-4 -21 -8 -24 -10 -6 -9 -36 2 -54 4 -7 2 -12 -4 -12 -7 0 -9 -8 -5 -19 4 -14
-1 -20 -20 -25 -32 -8 -32 -19 0 -49 26 -24 41 -67 24 -67 -6 0 -7 -9 -4 -21
5 -14 1 -25 -12 -34 -17 -13 -17 -15 5 -30 32 -23 28 -39 -8 -31 -24 4 -30 2
-30 -11 0 -9 3 -14 6 -10 12 11 53 -38 49 -58 -2 -11 -4 -26 -4 -33 -1 -8 -6
-10 -13 -6 -10 6 -10 4 0 -7 18 -20 15 -24 -20 -26 -17 -1 -36 -7 -41 -12 -5
-5 -17 -7 -26 -4 -9 4 -4 -4 11 -15 14 -12 33 -22 42 -22 9 0 16 -4 16 -10 0
-5 -10 -10 -22 -10 -17 0 -19 -3 -9 -9 7 -5 11 -13 7 -19 -3 -6 -2 -13 3 -17
19 -11 -33 -95 -59 -95 -6 0 -9 -4 -6 -9 7 -11 -22 -23 -35 -15 -5 3 -9 1 -9
-5 0 -5 5 -13 10 -16 6 -3 9 -27 8 -51 -3 -41 -6 -46 -31 -51 -25 -5 -26 -7
-10 -19 17 -12 17 -13 1 -19 -10 -4 -18 -14 -18 -22 0 -8 -4 -12 -9 -9 -5 3
-12 -1 -15 -10 -9 -23 -8 -24 16 -24 19 0 20 -2 7 -17 -25 -31 -61 -103 -50
-103 5 0 11 5 13 12 2 6 9 9 15 5 18 -11 -27 -95 -57 -109 -23 -10 -26 -17
-24 -47 2 -20 3 -44 3 -55 1 -15 4 -16 15 -7 19 16 30 -3 13 -21 -21 -20 -41
-88 -30 -99 6 -6 6 -29 2 -57 -4 -26 -8 -52 -8 -59 -1 -6 -13 -14 -28 -16 -20
-3 -15 -4 15 -6 24 0 42 -6 42 -13 0 -7 6 -6 18 3 21 17 54 18 59 2 3 -7 -7
-15 -22 -19 l-25 -6 32 -18 c44 -23 46 -43 6 -69 -18 -11 -28 -21 -21 -21 6 0
15 5 19 11 3 6 15 9 25 6 11 -3 19 -1 19 5 0 5 4 6 10 3 5 -3 8 -20 7 -38 -2
-19 3 -36 12 -43 12 -10 11 -16 -8 -43 -21 -29 -18 -37 12 -32 4 0 7 -3 7 -9
0 -5 -5 -10 -12 -10 -6 0 -8 -3 -5 -6 4 -4 14 -1 22 6 13 11 19 10 33 -5 13
-13 14 -19 5 -22 -18 -7 -16 -30 2 -30 8 0 15 3 15 6 0 3 11 7 25 7 14 1 23
-2 20 -6 -12 -20 7 -36 45 -35 57 1 51 -22 -8 -30 -26 -3 -53 -9 -58 -13 -14
-9 -25 -42 -15 -42 5 0 11 -9 14 -20 4 -16 13 -20 46 -18 30 1 45 -4 56 -18
17 -23 19 -34 4 -34 -25 0 3 -16 32 -18 59 -5 68 -57 17 -91 -31 -20 -31 -21
-7 -16 37 9 43 -21 18 -93 -13 -37 -16 -59 -9 -66 7 -7 10 -4 10 7 0 9 5 17
10 17 6 0 10 -6 10 -14 0 -8 5 -16 12 -18 6 -2 13 -19 14 -36 1 -18 10 -39 19
-48 9 -9 13 -24 10 -35 -3 -10 -1 -28 5 -40 25 -46 27 -235 5 -374 -6 -35 -5
-38 9 -26 20 17 20 12 -2 -70 -11 -44 -22 -64 -30 -61 -7 2 -24 1 -37 -2 -35
-9 -35 -57 0 -76 22 -12 27 -11 45 5 11 10 22 26 26 37 4 15 9 16 19 8 8 -6
14 -19 14 -28 0 -9 2 -44 4 -77 2 -34 0 -94 -5 -135 -4 -41 -10 -97 -13 -125
-6 -64 -18 -471 -16 -550 1 -33 3 -244 5 -469 3 -330 6 -410 17 -417 39 -24
41 -7 45 652 6 777 5 733 4 794 -2 81 7 144 25 161 9 9 19 14 22 10 4 -3 3 -6
-2 -6 -4 0 -3 -6 3 -13 6 -7 13 -66 15 -131 3 -69 9 -122 16 -129 8 -8 11 -7
11 6 0 23 20 22 21 0 0 -10 3 -27 5 -38 3 -11 6 -31 8 -45 2 -14 4 -31 4 -38
2 -10 7 -10 23 -2 11 7 23 10 25 7 3 -3 5 -39 5 -81 0 -44 4 -76 10 -76 6 0 7
-5 3 -12 -4 -7 -3 -8 5 -4 6 4 10 15 9 23 -2 9 3 18 9 20 8 3 13 -4 13 -19 -1
-64 13 -123 31 -136 15 -11 19 -21 14 -42 -4 -20 -2 -29 10 -34 9 -3 20 -4 25
-1 7 4 11 -6 25 -57 2 -5 3 -33 4 -64 1 -34 5 -53 11 -49 5 3 10 3 11 -2 6
-59 14 -76 43 -86 5 -2 10 -12 11 -23 3 -32 43 -101 59 -102 9 -1 23 -3 31 -4
8 -1 17 -9 20 -19 3 -9 12 -20 20 -23 8 -3 15 -13 15 -22 0 -11 6 -15 20 -11
11 3 20 2 21 -1 0 -4 2 -18 5 -32 13 -88 17 -221 11 -412 -2 -59 7 -74 34 -58
9 6 14 29 15 62 6 192 14 302 23 311 7 7 12 6 15 -4 24 -78 42 -119 53 -123
10 -4 9 2 -3 25 -8 17 -17 41 -19 52 -3 12 -9 40 -14 62 -6 22 -13 57 -16 78
-8 52 -21 46 -17 -8 3 -37 1 -45 -13 -45 -17 0 -18 14 -1 140 6 48 15 208 21
375 6 155 13 215 25 215 4 0 11 -16 14 -35 9 -44 45 -130 52 -123 2 3 0 27 -6
54 -6 26 -13 73 -16 103 -3 31 -7 66 -10 79 -5 24 5 29 23 11 9 -9 10 -7 6 9
-3 15 0 24 11 28 9 3 16 12 16 18 0 25 25 46 47 40 21 -6 23 -12 22 -68 0 -68
8 -132 22 -158 5 -9 9 -26 9 -37 0 -12 4 -21 9 -21 18 0 20 -58 23 -547 l3
-493 26 0 26 0 -3 173 c-3 210 -3 378 0 647 2 136 -1 213 -9 230 -6 14 -9 35
-7 46 4 27 59 78 115 107 34 18 45 32 62 75 19 51 22 53 50 48 17 -3 37 -1 45
4 10 6 20 4 32 -6 26 -24 51 -13 73 34 22 47 47 61 70 39 8 -8 12 -16 10 -19
-2 -2 7 -17 20 -33 l24 -30 -15 50 c-9 28 -16 55 -18 60 -3 20 -18 35 -26 30
-5 -3 -16 10 -24 30 -8 19 -20 35 -25 35 -6 0 -11 5 -11 11 0 15 -50 54 -69
54 -17 0 -24 53 -9 72 5 7 5 13 0 17 -18 11 -24 110 -8 146 12 28 16 32 21 18
9 -24 16 -23 51 7 l29 25 15 -30 c12 -23 18 -27 32 -19 11 6 15 16 11 27 -6
15 -5 15 10 3 26 -21 20 3 -7 28 -13 13 -27 33 -30 46 -4 17 -15 24 -46 29
-57 9 -77 33 -82 100 -3 43 -1 56 9 56 8 0 11 -4 8 -10 -3 -5 -1 -10 5 -10 6
0 13 7 16 15 8 19 24 19 24 0 0 -8 5 -15 11 -15 5 0 7 5 4 10 -3 5 -1 10 5 10
6 0 13 -8 16 -17 20 -61 27 -72 52 -75 18 -2 26 -10 28 -28 2 -14 8 -41 14
-60 10 -37 33 -185 31 -210 -5 -83 4 -545 14 -725 8 -148 9 -445 1 -502 -3
-23 -1 -55 5 -69 9 -25 11 -26 25 -12 13 13 17 51 21 204 5 223 5 272 -1 379
-8 129 -18 428 -20 585 -1 80 -6 166 -10 192 -8 45 -7 47 18 54 14 3 26 13 26
22 0 28 17 0 41 -68 12 -36 31 -74 41 -86 22 -24 24 -67 4 -87 -17 -17 -35
-106 -30 -150 8 -84 15 -111 32 -140 11 -18 27 -56 37 -85 9 -28 21 -50 26
-46 5 3 7 10 4 15 -4 5 0 9 9 9 8 0 21 3 30 6 11 4 17 -3 23 -23 4 -15 6 -34
5 -41 -2 -6 6 -12 18 -12 11 0 20 -4 20 -8 0 -13 173 -33 184 -22 7 7 6 10 -2
10 -7 0 -12 7 -12 16 0 8 -4 13 -9 9 -12 -7 -28 21 -35 60 -3 15 -12 35 -19
44 -8 9 -18 26 -21 37 -4 12 -16 24 -27 27 -27 7 -83 -17 -101 -44 -19 -30
-33 -19 -48 38 -14 59 -40 264 -34 274 2 4 20 5 39 2 30 -5 39 -1 65 27 35 37
37 58 11 91 -17 22 -17 27 -5 44 8 10 14 17 15 14 0 -2 2 -14 3 -26 5 -47 15
-33 13 18 -2 63 -17 72 -49 26 -24 -35 -106 -113 -112 -106 -9 10 -21 99 -18
142 4 54 17 62 28 15 4 -18 9 -36 10 -40 1 -5 2 -13 3 -20 0 -6 4 -8 8 -4 4 4
8 36 8 71 1 35 4 67 7 71 13 12 78 -20 78 -38 0 -10 5 -18 10 -18 6 0 10 11
10 24 0 30 18 44 26 21 6 -14 8 -14 19 1 6 9 17 14 23 10 5 -3 12 0 15 6 3 10
7 10 20 -1 19 -15 21 -95 3 -88 -8 3 -12 -36 -13 -122 -1 -69 0 -120 3 -113
11 25 22 10 34 -50 6 -35 19 -84 27 -110 37 -119 53 -217 58 -344 l5 -134 -34
0 c-61 0 -186 -60 -186 -90 0 -4 14 5 31 21 30 28 74 47 85 36 7 -6 -16 -96
-33 -130 -8 -16 -12 -31 -9 -34 2 -3 12 10 21 28 9 17 20 28 24 22 3 -5 21 -9
40 -8 28 0 35 4 37 23 4 20 2 21 -16 12 -11 -6 -20 -7 -20 -1 0 5 -7 8 -16 7
-36 -3 -21 20 29 45 l52 27 3 -102 c1 -55 4 -256 7 -446 2 -190 4 -348 5 -352
0 -5 11 -8 25 -8 31 0 30 -15 20 518 -2 122 -7 227 -10 232 -4 6 -3 11 2 11 4
1 21 3 37 5 l28 3 -6 -307 c-4 -169 -9 -342 -11 -384 l-5 -78 28 0 c25 0 27 3
29 43 3 82 15 624 17 769 1 111 4 148 14 148 6 0 12 5 12 11 0 5 -4 8 -9 4 -5
-3 -12 3 -14 12 -4 15 -5 15 -6 -2 -1 -24 -19 -45 -37 -45 -9 0 -13 34 -16
118 -3 118 -3 119 -35 156 -50 56 -43 76 27 71 19 -1 30 0 23 2 -8 3 -9 12 -3
29 10 24 7 88 -5 137 -5 18 -2 26 12 30 10 2 26 8 35 12 13 5 20 0 28 -19 11
-29 41 -47 48 -28 7 23 21 12 32 -25 23 -82 37 -202 41 -355 2 -49 6 -88 10
-88 3 0 7 15 7 33 0 17 1 34 1 37 2 7 10 131 16 235 2 50 10 124 16 165 15 96
14 123 -11 190 -24 67 -24 67 -1 73 14 3 17 11 14 31 -5 22 -3 25 13 19 11 -3
29 -18 41 -32 l23 -26 -18 45 c-9 25 -25 57 -35 72 -10 14 -19 38 -21 52 -1
13 -7 31 -13 38 -6 7 -12 18 -13 23 -7 42 -20 -9 -22 -89 -1 -37 -5 -69 -10
-72 -4 -3 -5 -11 -1 -19 3 -9 -1 -15 -10 -15 -13 0 -15 11 -12 56 3 53 -11
114 -26 114 -4 0 -3 -15 2 -32 12 -43 12 -95 -1 -103 -6 -4 -8 -11 -4 -16 7
-11 -15 -34 -57 -61 -19 -12 -30 -13 -44 -5 -32 17 -59 46 -62 65 -7 45 -10
232 -3 232 4 0 17 -14 28 -31 13 -22 22 -27 27 -19 4 7 2 16 -5 20 -9 5 -7 12
7 26 27 27 23 48 -11 54 -27 5 -28 6 -13 21 10 10 14 26 11 40 -3 13 -6 31 -8
39 -4 20 47 50 84 50 28 0 60 22 60 41 0 5 11 7 25 3 21 -5 24 -3 20 19 -3 15
1 30 10 37 13 11 19 9 33 -11 9 -13 16 -26 15 -29 -1 -3 4 -8 12 -12 7 -5 11
-16 8 -27 -6 -23 25 -38 33 -16 7 16 -40 85 -58 85 -6 0 -8 10 -4 24 4 15 1
26 -6 28 -8 3 -6 14 7 36 19 31 35 42 35 23 0 -15 54 -2 63 15 5 8 13 12 18 9
5 -4 6 -11 3 -17 -4 -6 2 -6 15 1 18 10 21 9 21 -6 0 -10 -9 -26 -20 -36 -30
-25 -25 -43 6 -22 26 17 27 16 65 -21 33 -32 38 -34 34 -15 -6 33 4 50 27 46
17 -4 18 -2 6 13 -7 9 -19 23 -26 31 -10 11 -10 16 0 29 7 8 13 22 14 31 1 27
38 101 49 98 14 -5 19 -47 6 -60 -14 -14 -14 -27 -1 -27 6 0 10 7 10 15 0 15
20 22 20 8 0 -5 9 -19 20 -33 12 -15 18 -18 14 -7 -3 9 -3 17 2 17 4 0 16 -8
27 -17 19 -17 20 -17 8 4 -15 29 -14 36 5 29 16 -6 12 6 -13 35 -11 14 -11 18
2 29 12 10 20 9 40 -4 22 -14 25 -15 25 -1 0 8 7 15 15 15 8 0 15 -4 15 -10 0
-5 5 -10 11 -10 7 0 9 12 4 36 -6 34 -5 36 14 31 12 -3 21 -2 21 3 0 4 -10 10
-22 13 -18 5 -19 8 -8 21 7 9 19 16 26 16 8 0 14 5 14 10 0 6 13 31 29 56 21
34 31 43 37 33 5 -8 7 -22 6 -31 -2 -10 2 -18 7 -18 6 0 11 4 11 8 0 14 63 56
82 55 10 -1 20 2 23 8 4 5 14 5 25 -1 16 -9 20 -7 25 13 6 24 4 48 -5 57 -5 5
-29 68 -33 85 -3 13 -37 45 -48 45 -5 0 -6 7 -3 15 4 9 -1 18 -11 21 -9 4 -14
13 -11 20 3 7 -3 16 -14 19 -10 3 -21 12 -24 20 -3 8 -27 26 -53 39 -59 31
-88 54 -80 62 7 7 -46 54 -61 54 -6 0 -15 6 -19 14 -4 7 -22 20 -39 29 -17 9
-37 23 -44 32 -7 9 -28 22 -46 30 -20 8 -33 21 -33 32 0 10 -2 27 -5 38 -2 11
-5 30 -5 41 -1 12 -27 48 -58 80 -50 51 -57 63 -58 101 -1 24 2 43 6 43 5 0 9
-7 9 -16 0 -9 10 -25 23 -36 19 -17 22 -18 25 -4 2 9 8 16 13 16 18 0 -34 65
-65 81 -17 9 -35 24 -41 35 -5 11 -22 35 -38 55 -15 20 -27 39 -27 42 0 13 16
7 38 -13 16 -15 22 -17 22 -7 0 8 -7 20 -15 27 -11 9 -12 17 -5 30 7 13 7 21
-1 25 -6 4 -8 17 -5 29 4 16 -4 33 -27 58 -59 66 -78 91 -73 96 3 3 11 0 18
-5 47 -36 62 -6 18 35 -25 23 -25 24 -2 19 17 -4 22 -1 22 14 0 14 -7 19 -28
19 -41 0 -44 9 -14 37 l27 26 -42 -7 c-35 -5 -43 -3 -43 9 0 23 -63 112 -83
118 -10 3 -21 15 -24 26 -3 12 -9 21 -14 21 -5 0 -9 6 -9 14 0 8 -9 21 -20 29
-13 9 -18 20 -14 30 3 9 -3 23 -15 34 -25 21 -27 33 -6 33 8 0 15 5 15 10 0
15 -64 80 -79 80 -6 0 -11 4 -11 9 0 5 -9 13 -20 16 -25 8 -27 47 -3 70 12 13
13 19 4 24 -10 6 -10 18 -1 50 10 39 9 42 -18 69 -25 24 -27 30 -14 38 12 8
13 14 2 34 -7 13 -12 48 -11 78 1 37 -4 61 -14 72 -13 14 -15 45 -15 156 2
209 1 216 -13 238 -8 12 -17 55 -21 96 -21 217 -91 283 -199 190 -66 -57 -216
-213 -212 -220 8 -13 -40 -41 -58 -35 -11 5 -17 -2 -22 -23 -7 -36 -35 -62
-66 -65 -13 -1 -35 -13 -49 -28 -21 -22 -60 -40 -93 -43 -5 -1 -14 -12 -22
-25 -18 -35 -55 -36 -56 -2 -1 18 -3 20 -6 8 -6 -22 -48 -19 -48 3 -1 20 -43
15 -67 -7 -10 -9 -18 -12 -18 -8 0 5 -5 4 -12 -3 -7 -7 -22 -12 -34 -12 -18 0
-22 5 -20 24 2 17 -1 23 -10 19 -8 -3 -14 0 -14 6 0 6 -5 11 -11 11 -5 0 -7
-4 -4 -10 13 -21 -7 -29 -27 -11 -11 11 -18 23 -15 28 3 5 -3 14 -14 21 -17
11 -21 9 -29 -13 -6 -15 -10 -37 -10 -51 0 -13 -6 -24 -13 -24 -10 0 -13 14
-10 56 2 46 1 54 -10 46 -7 -6 -12 -25 -11 -42 2 -27 0 -30 -19 -24 -12 4 -22
7 -22 8 -15 39 -29 58 -32 45 -5 -22 -43 -13 -43 10 -1 27 -30 -18 -30 -46 0
-13 -4 -23 -10 -23 -5 0 -10 8 -10 18 0 10 -6 19 -14 19 -8 0 -12 -6 -9 -14 3
-7 1 -13 -5 -13 -5 0 -12 9 -15 20 -3 11 -12 20 -21 20 -9 0 -13 -6 -10 -13 3
-8 -2 -19 -10 -26 -12 -10 -17 -8 -26 10 -9 16 -14 18 -20 9 -6 -10 -24 -3
-76 30 -51 34 -83 65 -134 135 -37 49 -74 98 -84 107 -9 10 -22 32 -28 50 -28
81 -84 138 -137 138 -22 0 -40 20 -19 20 7 1 -2 7 -21 15 -41 18 -36 18 -55 0z
m1799 -455 c3 -5 1 -10 -4 -10 -6 0 -11 5 -11 10 0 6 2 10 4 10 3 0 8 -4 11
-10z m-1756 -1840 c14 0 27 -14 42 -42 12 -24 25 -45 29 -48 13 -10 20 -69 8
-76 -7 -4 -14 -1 -16 6 -3 8 -16 24 -30 37 -14 13 -27 34 -29 45 -4 28 -12 35
-21 21 -9 -14 -35 -12 -55 6 -12 10 -14 18 -6 38 5 15 8 32 5 39 -9 24 7 23
30 -1 13 -14 32 -25 43 -25z m2041 -123 c0 -1 -13 -28 -29 -59 -16 -31 -27
-58 -25 -61 3 -3 -15 -25 -39 -50 -44 -46 -64 -52 -108 -33 -9 4 -41 -1 -71
-12 l-54 -19 -30 35 c-16 20 -41 48 -56 63 -29 28 -41 62 -14 40 8 -6 39 -13
69 -14 50 -3 55 -1 46 14 -5 10 -9 20 -9 23 0 10 37 7 67 -6 44 -18 53 -17 63
2 5 10 24 22 42 25 17 4 43 18 57 31 16 15 38 24 58 24 18 0 33 -1 33 -3z
m190 -176 c0 -16 6 -34 14 -40 15 -13 11 -38 -15 -96 -16 -36 -33 -55 -49 -55
-6 0 -13 -7 -16 -15 -4 -8 -12 -15 -19 -15 -7 0 -18 -7 -26 -16 -11 -14 -15
-13 -31 8 -18 22 -19 22 -13 2 5 -18 0 -23 -30 -28 -19 -4 -35 -11 -35 -16 0
-13 -37 -13 -45 -1 -3 5 5 11 17 13 22 3 29 23 9 23 -5 0 -13 3 -16 7 -4 4
-16 3 -27 -3 -15 -8 -17 -14 -8 -24 13 -15 -6 -25 -51 -25 -21 0 -27 -4 -22
-15 3 -10 1 -15 -7 -13 -7 2 -26 -16 -42 -39 -17 -25 -37 -43 -48 -43 -10 0
-22 -5 -25 -10 -6 -9 -52 -7 -61 3 -8 7 8 37 16 32 12 -7 17 15 15 70 -1 41 3
52 19 62 14 7 21 22 21 40 0 27 2 28 50 30 81 4 84 5 128 46 23 22 61 48 85
59 23 10 42 24 42 30 0 6 3 8 7 5 3 -4 12 -2 20 4 14 13 18 -1 4 -16 -12 -13
-1 -76 13 -74 34 4 39 -1 21 -21 -10 -11 -15 -23 -11 -27 4 -5 11 -1 16 7 4 8
24 35 44 60 19 24 33 46 31 48 -2 2 -17 -4 -35 -13 -17 -9 -41 -15 -53 -13
-17 3 -10 9 34 31 46 23 56 32 52 48 -4 13 0 19 11 19 11 0 16 -9 16 -29z
m-1940 -262 c0 -5 4 -8 9 -5 10 7 24 -22 16 -34 -3 -5 3 -11 14 -15 10 -3 21
-15 24 -26 3 -12 10 -18 16 -14 6 3 11 -1 11 -9 0 -19 30 -56 46 -56 6 0 28
-18 47 -39 19 -22 37 -37 40 -35 2 2 15 -10 28 -28 53 -70 69 -84 115 -101 27
-9 68 -34 90 -55 103 -92 148 -127 165 -128 10 -1 39 -21 64 -45 42 -40 45
-47 41 -84 -10 -89 -19 -125 -32 -125 -8 0 -16 -11 -20 -25 -9 -35 -21 -23
-28 30 -4 24 -11 47 -16 50 -5 3 -5 -7 0 -24 4 -16 7 -31 5 -33 -1 -2 -5 -21
-8 -43 -3 -22 -9 -49 -13 -59 -6 -16 -4 -18 10 -13 11 4 15 3 11 -4 -4 -6 -9
-25 -11 -42 -8 -50 -14 -64 -23 -49 -4 7 -7 -10 -5 -38 1 -33 -2 -48 -8 -42
-16 16 -34 115 -37 202 -2 83 -6 130 -11 140 -1 3 -3 11 -4 19 0 8 -7 16 -15
19 -9 3 -11 -1 -6 -17 7 -22 13 -83 16 -161 2 -55 27 -177 42 -205 10 -18 11
-36 3 -75 -14 -70 -19 -90 -25 -90 -18 1 -29 20 -35 62 -6 40 -11 48 -36 57
-17 5 -30 17 -30 26 0 10 -7 15 -17 13 -21 -4 -66 45 -70 76 -2 12 -12 33 -22
47 -11 15 -21 40 -23 56 -2 16 -11 38 -21 47 -27 27 -19 68 9 45 19 -15 28 10
16 42 -5 13 -6 33 -1 44 4 11 8 14 8 8 1 -18 33 -53 48 -53 6 0 14 -8 18 -19
3 -10 17 -32 31 -47 46 -53 49 -58 50 -83 2 -15 3 -37 4 -51 2 -22 3 -21 14
10 6 19 14 40 17 45 8 15 -1 115 -11 115 -5 0 -7 -11 -5 -25 1 -14 -2 -28 -6
-31 -5 -3 -9 1 -10 8 0 7 -2 22 -4 33 -3 18 -12 114 -15 170 -1 17 -3 17 -11
-5 -14 -33 -27 -10 -22 37 3 27 -1 41 -17 55 -11 10 -20 27 -20 37 0 10 -7 25
-17 32 -15 13 -16 11 -9 -16 12 -48 12 -50 -7 -47 -9 2 -20 -4 -23 -13 -11
-28 -23 -16 -19 20 3 39 -11 47 -24 14 -7 -21 -8 -21 -29 6 -12 15 -22 36 -22
46 0 11 -5 19 -11 19 -24 0 -59 58 -59 99 0 17 -4 33 -10 36 -5 3 -10 -2 -10
-11 0 -24 -23 -2 -25 23 -3 42 -63 124 -66 92 -1 -8 0 -20 1 -28 1 -9 -4 -12
-15 -7 -9 3 -20 6 -25 6 -4 0 -10 9 -13 19 -3 14 -11 18 -26 14 -14 -3 -21 0
-22 8 -1 8 -2 36 -4 62 -1 27 -7 52 -13 56 -6 3 -12 20 -14 36 -2 17 -10 35
-18 42 -20 16 -4 31 40 36 19 2 38 5 43 5 4 1 7 -3 7 -9z m2220 -99 c0 -5 0
-11 -1 -12 0 -2 4 -15 10 -30 8 -21 7 -28 -2 -29 -9 0 -9 -2 1 -6 17 -7 15
-23 -5 -45 -13 -15 -15 -23 -6 -36 5 -9 16 -17 23 -17 8 0 14 -15 15 -37 2
-21 0 -38 -5 -38 -4 0 -5 -11 -2 -25 3 -16 0 -25 -9 -25 -7 0 -9 -3 -6 -6 14
-14 -13 -42 -34 -37 -15 4 -20 3 -15 -5 11 -17 -9 -15 -24 3 -7 8 -18 15 -24
14 -7 0 -6 -2 2 -6 16 -6 15 -33 -2 -55 -14 -19 -26 -14 -26 11 0 18 -34 44
-44 34 -3 -4 -6 -20 -6 -37 0 -48 -14 -62 -30 -29 -7 15 -15 37 -17 48 -1 11
-5 30 -8 42 -3 14 1 25 11 31 14 8 18 24 23 85 1 4 8 7 17 7 17 0 94 60 94 73
0 5 -4 6 -9 3 -10 -7 -24 22 -16 34 3 5 1 11 -5 15 -15 9 -2 25 20 25 10 0 29
13 42 29 24 31 38 38 38 21z m-325 -442 c0 -29 -6 -47 -17 -56 -10 -7 -18 -24
-18 -38 0 -18 -5 -24 -21 -24 -23 0 -51 -55 -44 -89 5 -26 -5 -27 -33 0 -12
11 -27 17 -33 14 -6 -4 -3 -12 8 -21 10 -7 13 -14 6 -14 -8 0 -9 -9 -2 -32 11
-38 0 -53 -25 -35 -13 10 -19 30 -22 80 -3 61 -1 69 24 96 15 16 38 31 52 33
18 2 25 9 26 26 1 12 8 30 16 40 8 9 14 24 14 32 -1 13 23 25 59 29 6 0 11
-18 10 -41z m-2105 -600 l1 -33 14 25 c8 14 15 19 16 13 1 -7 3 -17 4 -23 1
-5 3 -19 4 -30 0 -11 6 -20 12 -20 5 0 8 4 4 9 -3 5 -1 12 3 15 5 3 15 -6 23
-20 12 -23 14 -24 20 -7 5 15 10 10 24 -22 18 -41 24 -138 11 -185 -5 -21 -5
-22 3 -5 l10 20 2 -20 c1 -11 1 -27 0 -35 -2 -8 -3 -71 -4 -139 -1 -81 -6
-126 -13 -128 -10 -3 -16 24 -29 137 -6 52 -34 108 -53 106 -12 -1 -16 5 -12
19 9 38 5 165 -5 166 -5 0 -14 -14 -20 -33 -23 -75 -49 -75 -30 0 7 26 15 65
18 85 4 33 3 37 -14 32 -15 -5 -17 -2 -14 17 3 12 6 37 7 55 3 43 18 43 18 1z
m273 -281 c24 -60 22 -207 -4 -207 -5 0 -6 6 -3 14 3 8 1 17 -5 20 -12 8 -41
-56 -41 -90 0 -13 -4 -24 -10 -24 -14 0 -13 73 2 88 9 9 8 13 -4 17 -11 4 -15
15 -12 33 4 31 13 147 14 178 0 17 5 20 23 17 15 -3 28 -18 40 -46z m157 -24
c0 -8 7 -28 16 -45 9 -17 18 -47 20 -67 7 -67 20 -106 34 -106 22 0 28 -173
17 -525 -3 -96 -6 -190 -6 -207 -1 -37 -21 -46 -21 -10 0 32 -14 49 -33 41
-10 -4 -17 -1 -17 6 0 7 -8 18 -17 25 -14 11 -15 15 -4 29 11 13 10 24 -2 63
-9 26 -23 83 -33 125 -18 81 -24 89 -27 42 -3 -37 -27 -44 -28 -7 -2 36 -2 25
6 123 5 47 9 103 10 125 1 22 3 42 4 45 1 3 4 13 6 23 2 10 12 36 23 57 19 40
17 51 -6 28 -9 -9 -11 -3 -10 24 1 19 -3 41 -7 48 -24 38 -8 196 16 160 7 -12
10 -11 15 6 7 25 44 22 44 -3z"/>
<path d="M4200 3295 c-10 -12 -9 -16 3 -21 21 -8 37 3 30 21 -7 19 -17 19 -33
0z"/>
<path d="M2485 1631 c-3 -5 -2 -12 3 -15 5 -3 9 1 9 9 0 17 -3 19 -12 6z"/>
<path d="M2646 1545 c-3 -8 -1 -15 4 -15 6 0 10 7 10 15 0 8 -2 15 -4 15 -2 0
-6 -7 -10 -15z"/>
<path d="M2675 1461 c-4 -8 -10 -26 -11 -40 -6 -47 -6 -162 0 -168 3 -4 7 19
7 50 2 70 2 74 12 83 7 7 11 -9 8 -33 -1 -6 2 -14 7 -17 10 -6 6 65 -6 109 -6
21 -10 26 -17 16z"/>
<path d="M2617 1399 c-10 -14 -13 -30 -8 -47 5 -15 6 -32 4 -39 -2 -6 0 -14 6
-17 6 -4 9 12 7 41 -1 27 1 56 6 66 12 24 2 22 -15 -4z"/>
<path d="M1644 5876 c-4 -10 -2 -22 4 -28 8 -8 13 -7 18 6 4 10 2 22 -4 28 -8
8 -13 7 -18 -6z"/>
<path d="M3580 5795 c0 -8 7 -15 15 -15 8 0 15 7 15 15 0 8 -7 15 -15 15 -8 0
-15 -7 -15 -15z"/>
<path d="M4475 5796 c-16 -11 -17 -17 -7 -29 16 -19 46 -16 50 5 5 25 -22 40
-43 24z"/>
<path d="M1574 5756 c-7 -19 13 -56 30 -56 21 0 38 27 31 50 -7 23 -53 28 -61
6z"/>
<path d="M3405 5760 c-3 -5 1 -10 10 -10 9 0 13 5 10 10 -3 6 -8 10 -10 10 -2
0 -7 -4 -10 -10z"/>
<path d="M3450 5650 c-12 -8 -12 -10 3 -16 21 -8 35 2 21 16 -5 5 -15 6 -24 0z"/>
<path d="M1700 5629 c0 -5 5 -7 10 -4 6 3 10 8 10 11 0 2 -4 4 -10 4 -5 0 -10
-5 -10 -11z"/>
<path d="M1042 5499 c-19 -30 -14 -55 14 -68 20 -9 30 -9 40 0 11 9 14 8 14
-5 0 -9 8 -16 20 -16 13 0 20 7 20 20 0 12 -7 20 -17 20 -12 0 -18 8 -19 26
-2 31 -3 32 -35 37 -18 4 -29 -1 -37 -14z"/>
<path d="M1766 5331 c-13 -21 9 -47 37 -42 4 0 7 -3 7 -9 0 -5 7 -10 15 -10 8
0 15 5 15 10 0 6 -7 13 -15 16 -8 4 -15 12 -15 19 0 7 -7 16 -16 19 -20 8 -22
8 -28 -3z"/>
<path d="M4669 5269 c-11 -6 -11 -11 -2 -20 12 -12 43 -6 43 10 0 14 -25 20
-41 10z"/>
<path d="M4743 5248 c-18 -23 -22 -45 -10 -57 17 -17 45 -13 57 8 13 25 13 27
-6 45 -19 19 -28 20 -41 4z"/>
<path d="M1723 5173 c-7 -2 -13 -11 -13 -18 0 -19 27 -26 34 -9 12 32 7 39
-21 27z"/>
<path d="M4556 5095 c-41 -12 -52 -25 -43 -50 5 -11 14 -12 44 -3 51 13 67 29
51 49 -11 13 -19 14 -52 4z"/>
<path d="M1623 5073 c-24 -5 -35 -25 -27 -48 9 -21 35 -19 41 4 3 11 14 22 25
24 11 3 17 10 13 16 -6 11 -13 12 -52 4z"/>
<path d="M1521 5011 c-8 -5 -11 -16 -8 -25 4 -10 -2 -20 -16 -27 -31 -16 -37
-28 -37 -71 0 -29 4 -38 18 -39 9 0 30 -2 45 -3 15 -1 33 5 40 12 12 15 18
122 6 122 -4 0 -9 9 -12 20 -6 22 -14 24 -36 11z"/>
<path d="M1623 4893 c-7 -3 -13 -13 -13 -24 0 -23 35 -26 43 -5 7 17 -13 35
-30 29z"/>
<path d="M4774 4815 c-4 -9 -2 -21 4 -27 15 -15 44 -1 40 19 -4 23 -36 29 -44
8z"/>
<path d="M4940 4635 c-31 -11 -36 -18 -44 -60 -10 -53 -4 -62 41 -71 27 -5 34
-1 59 31 30 39 39 75 19 75 -7 0 -19 8 -26 18 -12 16 -18 17 -49 7z"/>
<path d="M4483 4623 c-18 -7 -16 -40 1 -46 19 -7 40 18 32 38 -6 15 -12 17
-33 8z"/>
<path d="M1212 4598 c-17 -17 -15 -35 5 -42 21 -8 36 6 31 30 -4 22 -20 28
-36 12z"/>
<path d="M1533 4572 c-25 -23 -27 -40 -8 -68 26 -41 95 -30 95 15 0 54 -51 86
-87 53z"/>
<path d="M4643 4463 c-13 -5 -18 -35 -7 -46 11 -11 34 5 34 23 0 22 -10 29
-27 23z"/>
<path d="M1502 4409 c2 -6 8 -10 13 -10 5 0 11 4 13 10 2 6 -4 11 -13 11 -9 0
-15 -5 -13 -11z"/>
<path d="M1170 4235 c-10 -12 -10 -21 -1 -41 15 -35 64 -31 69 5 6 41 -43 66
-68 36z"/>
<path d="M4881 4221 c-18 -12 -6 -42 14 -35 8 3 15 15 15 25 0 21 -8 23 -29
10z"/>
<path d="M1407 4094 c-15 -13 -27 -32 -27 -40 0 -8 -7 -17 -15 -20 -23 -9 -18
-33 11 -46 21 -10 27 -9 34 3 5 8 7 22 4 32 -3 10 0 24 6 32 7 8 9 15 4 15 -5
0 0 7 10 15 13 10 17 18 10 25 -6 6 -19 1 -37 -16z"/>
<path d="M5222 4106 c1 -10 8 -17 13 -17 15 1 12 24 -3 29 -9 3 -13 -2 -10
-12z"/>
<path d="M5004 4069 c-3 -6 -1 -16 4 -21 13 -13 45 8 36 23 -7 12 -31 11 -40
-2z"/>
<path d="M1244 3987 c-27 -31 -44 -65 -39 -79 8 -20 72 -50 80 -38 3 6 15 10
26 10 10 0 20 5 20 10 1 6 2 16 3 23 1 6 -7 26 -18 42 -11 17 -20 31 -20 31
-6 10 -44 10 -52 1z"/>
<path d="M5101 3917 c-16 -16 -14 -37 5 -44 8 -3 13 -12 10 -19 -3 -8 1 -14
10 -14 8 0 13 4 10 9 -3 5 0 14 8 20 14 12 16 35 3 48 -12 12 -34 12 -46 0z"/>
<path d="M4824 3845 c3 -9 6 -19 6 -21 0 -2 7 -4 16 -4 22 0 13 34 -10 38 -14
3 -17 0 -12 -13z"/>
<path d="M5140 3791 c-14 -27 -13 -34 5 -27 8 3 15 0 15 -7 0 -6 7 -1 16 12
14 19 14 25 3 32 -21 13 -27 11 -39 -10z"/>
<path d="M4990 3731 c0 -23 25 -34 39 -17 7 9 7 16 -1 24 -18 18 -38 14 -38
-7z"/>
<path d="M1266 3671 c-4 -7 -5 -15 -2 -18 9 -9 19 4 14 18 -4 11 -6 11 -12 0z"/>
<path d="M5347 3363 c-4 -3 -7 -11 -7 -17 0 -6 5 -5 12 2 6 6 9 14 7 17 -3 3
-9 2 -12 -2z"/>
<path d="M1487 3216 c-6 -15 11 -36 29 -36 14 0 23 20 17 38 -6 16 -40 15 -46
-2z"/>
<path d="M1393 3070 c-38 -34 -68 -78 -68 -99 0 -9 13 -27 28 -40 26 -22 31
-23 68 -11 73 24 90 81 40 131 -16 16 -31 33 -33 38 -1 5 -17 -3 -35 -19z"/>
<path d="M1920 3050 c0 -6 7 -10 15 -10 8 0 15 2 15 4 0 2 -7 6 -15 10 -8 3
-15 1 -15 -4z"/>
<path d="M1806 3033 c-11 -12 -6 -43 8 -43 18 0 37 23 28 35 -9 12 -27 16 -36
8z"/>
<path d="M1595 2917 c-13 -45 -11 -57 12 -79 19 -18 26 -20 32 -9 5 7 14 10
20 7 6 -4 11 -4 12 1 0 4 2 19 5 32 2 13 0 29 -6 36 -5 6 -8 14 -5 16 2 3 -12
6 -31 6 -19 1 -37 -4 -39 -10z"/>
<path d="M1730 2855 c-6 -8 -17 -12 -24 -9 -15 6 -28 -19 -20 -39 4 -12 63
-16 84 -7 3 1 8 2 13 1 10 -1 9 4 -4 33 -14 31 -34 39 -49 21z"/>
<path d="M1880 2800 c0 -5 5 -10 10 -10 6 0 10 5 10 10 0 6 -4 10 -10 10 -5 0
-10 -4 -10 -10z"/>
<path d="M1436 2744 c-20 -19 -20 -19 0 -39 15 -15 18 -15 35 1 14 13 16 21 8
35 -12 23 -23 24 -43 3z"/>
<path d="M1786 2721 c-4 -5 -3 -16 0 -25 3 -9 1 -16 -6 -16 -22 0 -6 -45 18
-48 25 -4 40 21 24 41 -6 7 -9 23 -5 35 4 16 1 22 -10 22 -9 0 -18 -4 -21 -9z"/>
<path d="M5153 2701 c-11 -17 -9 -21 7 -26 23 -7 40 1 40 20 0 10 -20 25 -33
25 -1 0 -8 -9 -14 -19z"/>
<path d="M1660 2620 c0 -16 -4 -30 -9 -30 -5 0 -9 -10 -9 -22 -1 -13 -3 -32
-5 -43 -3 -11 0 -25 5 -31 5 -8 3 -14 -6 -17 -9 -4 -12 -14 -9 -26 3 -13 1
-21 -7 -21 -7 0 -10 -7 -6 -16 4 -9 0 -25 -9 -34 -14 -15 -13 -18 3 -34 17
-15 21 -15 32 -1 7 8 10 24 7 35 -3 11 -1 23 5 26 5 3 7 13 4 21 -3 8 1 29 8
48 8 18 12 36 8 39 -3 3 0 6 7 6 9 0 9 5 1 21 -10 17 -8 24 11 40 19 16 21 23
11 44 -16 36 -42 33 -42 -5z"/>
<path d="M1083 2623 c-8 -21 5 -43 26 -43 21 0 30 16 23 42 -5 19 -42 20 -49
1z"/>
<path d="M1910 2620 c0 -22 7 -25 29 -11 16 10 6 31 -15 31 -8 0 -14 -9 -14
-20z"/>
<path d="M1996 2581 c-15 -16 -15 -19 -1 -31 12 -10 18 -10 30 0 8 7 15 18 15
25 0 21 -27 25 -44 6z"/>
<path d="M5030 2583 c0 -17 48 -67 83 -87 59 -35 92 -39 119 -15 l23 20 -30
-5 c-34 -7 -112 32 -107 53 5 23 -18 39 -53 39 -19 0 -35 -2 -35 -5z"/>
<path d="M1285 2548 c-35 -27 -37 -54 -8 -89 14 -16 31 -28 38 -25 12 4 31
-37 27 -56 -1 -5 14 -8 33 -8 24 0 41 8 60 28 l25 27 -30 25 c-20 17 -28 31
-25 45 3 12 -4 31 -19 47 -28 32 -66 34 -101 6z"/>
<path d="M1715 2510 c-8 -13 3 -30 20 -30 14 0 27 24 18 34 -10 9 -31 7 -38
-4z"/>
<path d="M4649 2508 c-6 -21 -5 -38 1 -38 5 0 8 9 7 20 -1 17 -5 26 -8 18z"/>
<path d="M5001 2491 c-8 -5 -10 -14 -6 -21 5 -8 1 -11 -11 -9 -26 5 -44 -8
-44 -30 0 -16 -4 -17 -38 -8 -52 14 -76 4 -69 -29 4 -24 3 -25 -33 -19 -42 7
-52 -5 -44 -49 5 -28 -13 -36 -22 -11 -10 25 -42 17 -59 -15 -9 -17 -19 -29
-23 -26 -5 3 -14 1 -22 -4 -12 -7 -12 -12 3 -28 9 -10 14 -22 10 -26 -5 -4 -2
-6 6 -4 7 1 22 -13 32 -33 21 -39 58 -215 52 -245 -12 -61 -19 -338 -13 -495
2 -47 -2 -73 -14 -90 -15 -23 -14 -26 3 -41 17 -14 19 -32 20 -138 1 -81 -2
-119 -9 -115 -5 3 -10 1 -10 -5 0 -6 -4 -9 -9 -5 -5 3 -13 1 -16 -5 -5 -8 -11
-8 -20 0 -10 9 -16 7 -24 -7 -8 -15 -6 -19 10 -20 10 -1 21 2 24 6 2 5 15 6
29 4 22 -5 25 -11 28 -61 8 -103 6 -686 -2 -730 l-7 -42 43 0 c40 0 44 2 44
24 0 13 6 26 13 29 9 3 9 7 -1 19 -7 9 -12 20 -11 24 1 5 -1 20 -5 34 -3 14
-9 160 -12 325 -2 165 -7 325 -9 355 -17 232 -27 440 -26 555 0 39 0 99 0 135
0 36 -1 81 -3 100 -3 37 12 118 24 130 3 3 10 14 16 25 7 13 31 25 70 34 32 7
69 17 82 22 25 10 30 29 7 29 -13 0 -17 10 -30 73 -4 23 20 33 40 17 23 -19
84 -30 96 -17 51 62 49 56 29 90 -18 31 -35 187 -20 187 3 0 15 -7 26 -15 27
-20 58 -19 85 5 26 21 19 26 -12 10 -16 -9 -28 -2 -76 45 -78 76 -77 75 -92
66z"/>
<path d="M1153 2462 c-17 -11 3 -52 26 -52 23 0 33 21 17 40 -13 17 -28 21
-43 12z"/>
<path d="M1531 2461 c-21 -14 -4 -53 22 -49 25 3 35 37 15 49 -16 11 -20 11
-37 0z"/>
<path d="M4617 2449 c4 -13 8 -18 11 -10 2 7 -1 18 -6 23 -8 8 -9 4 -5 -13z"/>
<path d="M4530 2362 c0 -4 10 -13 23 -21 22 -14 22 -14 3 8 -20 22 -26 25 -26
13z"/>
<path d="M4505 2340 c3 -5 11 -10 16 -10 6 0 7 5 4 10 -3 6 -11 10 -16 10 -6
0 -7 -4 -4 -10z"/>
<path d="M1562 2329 c-19 -7 -22 -15 -20 -46 2 -28 -1 -38 -12 -38 -8 0 -16
-10 -18 -22 -2 -13 2 -23 9 -23 9 0 8 -4 -1 -15 -7 -8 -8 -15 -2 -15 14 0 20
-42 10 -70 -11 -29 13 -57 48 -57 20 0 26 6 31 29 3 18 15 33 27 38 42 16 62
65 44 109 -6 14 -11 29 -10 32 0 3 -9 5 -21 5 -13 -1 -23 5 -23 14 -1 8 -2 23
-3 32 -1 24 -31 37 -59 27z"/>
<path d="M1760 2250 c-15 -28 -13 -36 14 -48 17 -7 27 -7 35 1 18 18 12 43
-14 55 -21 10 -26 9 -35 -8z"/>
<path d="M1881 2250 c-17 -10 -7 -40 13 -40 7 0 16 6 19 14 8 19 -15 37 -32
26z"/>
<path d="M4400 2200 c0 -5 5 -10 11 -10 5 0 7 5 4 10 -3 6 -8 10 -11 10 -2 0
-4 -4 -4 -10z"/>
<path d="M4537 2196 c-3 -7 3 -20 13 -29 16 -14 19 -14 22 1 10 36 -23 61 -35
28z"/>
<path d="M5141 2130 c-17 -10 -7 -40 13 -40 7 0 16 6 19 14 8 19 -15 37 -32
26z"/>
<path d="M4610 2079 c0 -8 5 -20 11 -26 5 -5 25 -40 43 -77 37 -74 49 -76 36
-7 -6 31 -19 55 -49 85 -26 25 -41 35 -41 25z"/>
<path d="M3676 1987 c3 -10 9 -15 12 -12 3 3 0 11 -7 18 -10 9 -11 8 -5 -6z"/>
<path d="M3429 1968 c-4 -13 -8 -91 -4 -87 6 6 14 89 9 89 -2 0 -4 -1 -5 -2z"/>
<path d="M1270 1870 c-8 -5 -11 -12 -7 -16 4 -4 15 0 24 9 18 18 8 23 -17 7z"/>
<path d="M1674 1849 c-8 -14 11 -33 25 -25 6 4 11 11 11 16 0 13 -29 20 -36 9z"/>
<path d="M4027 1767 c1 -58 7 -96 22 -129 11 -27 23 -48 26 -48 3 0 -1 16 -9
35 -8 19 -18 74 -21 122 -9 113 -20 126 -18 20z"/>
<path d="M1195 1824 c-9 -9 -14 -23 -11 -31 3 -8 6 -17 6 -19 0 -9 37 -3 48 8
18 18 15 36 -7 48 -15 7 -24 6 -36 -6z"/>
<path d="M5335 1790 c-11 -17 5 -32 21 -19 7 6 11 15 8 20 -7 12 -21 11 -29
-1z"/>
<path d="M3904 1685 c-9 -23 4 -47 23 -43 22 4 30 38 11 49 -19 13 -28 11 -34
-6z"/>
<path d="M1833 1634 c-3 -8 -1 -20 5 -26 16 -16 42 -2 42 22 0 24 -38 28 -47
4z"/>
<path d="M4860 1595 c0 -18 5 -25 19 -25 27 0 34 27 11 40 -27 14 -30 13 -30
-15z"/>
<path d="M1598 1563 c-27 -32 -29 -42 -14 -78 13 -31 19 -35 50 -35 43 0 70
33 62 76 -10 51 -67 72 -98 37z"/>
<path d="M1716 1571 c-8 -13 4 -41 18 -41 18 0 32 14 31 30 0 17 -40 26 -49
11z"/>
<path d="M2265 1483 c2 -2 -1 -20 -5 -39 -6 -25 -5 -34 3 -31 15 4 22 57 9 67
-5 4 -8 6 -7 3z"/>
<path d="M2150 1459 c0 -5 5 -7 10 -4 6 3 10 8 10 11 0 2 -4 4 -10 4 -5 0 -10
-5 -10 -11z"/>
<path d="M4339 1438 c13 -15 29 -24 37 -21 8 3 14 0 14 -7 0 -6 5 -8 10 -5 6
3 10 18 10 32 l0 26 -23 -21 -23 -22 -24 23 -24 22 23 -27z"/>
<path d="M4320 1344 c0 -43 3 -75 6 -72 10 11 14 137 4 143 -6 4 -10 -23 -10
-71z"/>
<path d="M1640 1400 c0 -5 5 -10 11 -10 5 0 7 5 4 10 -3 6 -8 10 -11 10 -2 0
-4 -4 -4 -10z"/>
<path d="M2207 1404 c-15 -15 -7 -45 11 -42 9 2 17 12 17 22 0 20 -16 31 -28
20z"/>
<path d="M2267 1393 c-3 -5 -6 -51 -7 -103 -3 -152 -8 -338 -15 -575 -14 -508
-14 -526 4 -523 14 3 16 28 18 203 1 110 3 202 3 205 3 9 -1 122 -5 141 -2 10
1 19 6 19 6 0 7 9 3 22 -4 12 -6 86 -5 163 5 301 6 455 4 455 -1 0 -4 -3 -6
-7z"/>
<path d="M4365 1380 c-3 -5 -2 -10 4 -10 5 0 13 5 16 10 3 6 2 10 -4 10 -5 0
-13 -4 -16 -10z"/>
<path d="M1567 1323 c-14 -13 -6 -33 13 -33 22 0 23 1 14 24 -7 17 -16 20 -27
9z"/>
<path d="M3710 1310 c0 -5 4 -10 9 -10 6 0 13 5 16 10 3 6 -1 10 -9 10 -9 0
-16 -4 -16 -10z"/>
<path d="M4133 1249 c-12 -12 -7 -39 7 -39 12 0 19 25 11 38 -5 9 -10 9 -18 1z"/>
<path d="M3740 1196 c0 -9 5 -16 10 -16 6 0 10 4 10 9 0 6 -4 13 -10 16 -5 3
-10 -1 -10 -9z"/>
<path d="M4410 1160 c0 -5 5 -10 10 -10 6 0 10 5 10 10 0 6 -4 10 -10 10 -5 0
-10 -4 -10 -10z"/>
<path d="M4478 1143 c-33 -38 -59 -105 -48 -122 6 -10 13 -9 34 4 19 13 30 14
39 7 7 -6 18 -7 26 -3 11 7 10 11 -4 18 -16 9 -16 11 0 26 9 10 14 17 10 17
-3 0 1 13 10 30 19 38 19 46 -2 29 -13 -11 -17 -11 -20 -1 -6 17 -27 15 -45
-5z"/>
<path d="M3763 1108 c-21 -28 -23 -37 -7 -52 33 -34 74 -15 74 34 0 28 -49 41
-67 18z"/>
<path d="M3295 1080 c-10 -17 12 -37 25 -24 8 8 6 15 -4 23 -10 9 -16 9 -21 1z"/>
<path d="M4385 1030 c-8 -13 4 -32 16 -25 12 8 12 35 0 35 -6 0 -13 -4 -16
-10z"/>
<path d="M3970 952 c0 -12 19 -26 26 -19 2 2 -2 10 -11 17 -9 8 -15 8 -15 2z"/>
<path d="M4026 903 c-6 -14 -5 -15 5 -6 7 7 10 15 7 18 -3 3 -9 -2 -12 -12z"/>
<path d="M4276 814 c-4 -9 -4 -19 -1 -22 2 -3 7 3 11 12 4 9 4 19 1 22 -2 3
-7 -3 -11 -12z"/>
<path d="M3922 731 c-10 -6 -9 -11 3 -21 11 -9 19 -10 26 -3 13 13 -12 35 -29
24z"/>
<path d="M4516 588 c-3 -13 -8 -65 -11 -117 -3 -51 -7 -97 -10 -101 -3 -4 -6
-45 -7 -91 -3 -80 -2 -84 20 -87 17 -3 22 2 23 20 1 13 0 28 -1 33 -1 6 -2 90
-3 188 0 97 -2 177 -3 177 -2 0 -6 -10 -8 -22z"/>
<path d="M1541 387 c-6 -6 -11 -19 -11 -30 0 -27 44 -19 48 9 3 25 -20 38 -37
21z"/>
<path d="M4056 341 c-7 -11 18 -33 27 -24 4 3 7 12 7 20 0 15 -26 18 -34 4z"/>
</g>
</svg>
